PathFileType	4	(X/Y/Z)	Patient4_TMGait_0pt4_03_left_20.trc.trc
DataRate	CameraRate	NumFrames	NumMarkers	Units	OrigDataRate	OrigDataStartFrame	OrigNumFrames
77.777777777778	77.777777777778	6	33	mm	77.777777777778	1	       141
Frame#	Time	Sacral			L.Shoulder			Chest			R.Shoulder			Neck			R.ASIS			L.ASIS			R.Thigh.Superior			R.Thigh.Lateral			R.Thigh.Inferior			R.Patella			L.Thigh.Superior			L.Thigh.Lateral			L.Thigh.Inferior			L.Patella			L.Shank.Superior			L.Shank.Lateral			L.Shank.Inferior			R.Shank.Superior			R.Shank.Lateral			R.Shank.Inferior			R.Heel			R.Midfoot.Superior			R.Midfoot.Lateral			R.Toe			L.Heel			L.Midfoot.Lateral			L.Midfoot.Superior			L.Toe			L.Elbow			L.Wrist			R.Elbow			R.Wrist			
		X1	Y1	Z1	X2	Y2	Z2	X3	Y3	Z3	X4	Y4	Z4	X5	Y5	Z5	X6	Y6	Z6	X7	Y7	Z7	X8	Y8	Z8	X9	Y9	Z9	X10	Y10	Z10	X11	Y11	Z11	X12	Y12	Z12	X13	Y13	Z13	X14	Y14	Z14	X15	Y15	Z15	X16	Y16	Z16	X17	Y17	Z17	X18	Y18	Z18	X19	Y19	Z19	X20	Y20	Z20	X21	Y21	Z21	X22	Y22	Z22	X23	Y23	Z23	X24	Y24	Z24	X25	Y25	Z25	X26	Y26	Z26	X27	Y27	Z27	X28	Y28	Z28	X29	Y29	Z29	X30	Y30	Z30	X31	Y31	Z31	X32	Y32	Z32	X33	Y33	Z33	

1	26.150000000000	858.795662012923	1005.531970326954	509.796003041142	1039.061144336049	1421.957166191177	306.161089897698	1146.483458960542	1360.276416909581	467.627128273852	1070.991787311270	1443.149833409201	641.019693837755	1029.945461601390	1492.985667760316	460.174994628076	1091.000890144288	938.899527814369	621.060795882797	1068.843875399967	962.178506700303	347.792724419939	1131.788513096215	737.110712664265	588.859392229549	1051.536039028213	628.670545989001	649.517878600020	1126.910680776865	576.570614898121	566.838464044291	1126.860617781859	486.484168483435	572.104990165898	1155.915894543012	784.375187458721	370.766285614293	1116.827146524018	660.351843158135	285.162669777887	1224.203768811514	600.925203156008	342.873248584448	1239.438995828848	511.715932168822	332.595278611917	1171.391039311511	444.105988049850	325.880946672794	1027.572882081085	407.142733698268	280.733462907784	1012.726594535125	276.289245098939	332.395322375727	1091.737880807724	398.670936975484	579.534029254825	1016.291612232464	300.638237441891	644.785165369832	1046.145105667553	202.734549018395	579.698059675160	900.952501847076	43.385752261377	558.731824713959	1072.048261661051	95.974189768858	589.698593390394	985.280908239051	37.272227447764	631.473341012746	1193.446156437922	42.705602989001	616.061699402782	824.044488311681	236.657473604934	375.990818042187	867.988708260562	175.240212904404	297.313942637870	974.052102626401	163.514683225164	314.640431393014	1026.729000497302	36.482682918383	291.847695479665	982.763863091458	1073.144458904327	193.377371501005	1072.041948388267	827.010673248725	160.801506544106	1055.453841633747	1122.788591263280	812.766630152189	1266.466734727217	980.521194501651	775.353220343081	
2	26.162857142857	857.533158740781	1006.763875571115	511.959352319702	1038.252457730893	1422.043007009788	307.081798201322	1146.870651368189	1360.126124838557	467.603478926952	1073.395630153295	1443.715233024509	641.474804936688	1030.780824531365	1493.335444320730	460.763121738398	1090.355638072369	938.675536318614	621.540297711136	1066.316156823920	963.082743591058	348.607767198997	1129.607112258576	736.531092244863	588.808264828910	1048.736016535624	628.611823427423	649.739652180359	1123.351397632319	576.064114851096	566.728721729181	1122.675544471197	486.018026711859	571.806943145256	1154.990762271292	787.941863972150	371.877357806595	1117.841696955087	663.708144605212	285.554592406122	1226.148280718888	605.967897017334	343.162693905247	1243.169542963044	517.277513106635	332.518187427299	1177.013298359368	448.335891248276	325.456896269663	1034.253676114458	406.839600112135	280.953850084375	1024.517812986044	275.288658511885	331.440794257563	1087.260978214623	398.474709221413	579.434302085658	1011.629377292189	300.650815700699	644.854667856121	1041.076577667297	202.698893768676	579.681949281270	895.410855194810	43.462043455960	558.773702275062	1066.671926620514	96.003309656588	589.754231953397	979.837773421934	37.300719619027	631.555216647838	1187.955787130937	42.647227521563	616.139382002211	838.264769060022	227.248030790023	376.374470823018	883.720870390452	169.257644491450	296.215530123241	990.163420665944	162.381190895722	312.192134385768	1048.091616754272	38.559422175093	286.592554714823	979.898833923237	1073.316740836952	194.957601038545	1065.534393838826	826.158378971326	161.735439237718	1062.702024244204	1123.626721733640	813.519453614961	1277.056935647197	990.966265463736	770.102480235663	
3	26.175714285714	856.295107922042	1007.998279842289	514.092762107206	1037.468575417038	1422.127465952108	307.974857057657	1147.267761987508	1359.962543229841	467.556874688015	1075.801883894176	1444.263967914825	641.899365285523	1031.621376410443	1493.674579128462	461.329129232205	1089.709830189835	938.445201151060	621.973293767217	1063.792645070554	963.971027898888	349.376395552519	1127.395393627140	735.949981886485	588.696280885565	1045.941616759512	628.565235362718	649.951430765063	1119.763881322431	575.560972137090	566.588721006255	1118.453666048723	485.565941411302	571.509004809060	1153.974343978223	791.390361277391	372.927962230265	1118.686882431078	666.929365175536	285.969818069975	1227.891672503625	610.824704793273	343.477282300211	1246.639651843123	522.678763865236	332.467279396235	1182.446210601126	452.434194444843	325.027877625579	1040.850635578516	406.250643054600	281.168877430080	1036.418051389973	274.058689172165	330.420734706889	1082.770226020563	398.285327862466	579.340630311477	1006.963535169887	300.659803782516	644.922342843972	1036.023145095418	202.665243087965	579.671990161917	889.914357524195	43.527964383459	558.812994301892	1061.323646562420	96.021792616361	589.793473738509	974.434737769157	37.324792165559	631.637467078447	1182.507515670256	42.594741655199	616.213554142648	852.795174564419	217.351664934348	376.654203379479	899.772528032376	162.954528970921	294.991453069524	1006.510469161374	161.074111355854	309.679108667014	1069.820610080832	40.704359323723	281.187463133793	977.100591730465	1073.486659259458	196.501892863772	1059.134007371835	825.323643350106	162.660811455174	1069.901445308305	1124.422307497125	814.173281648019	1287.454389529939	1001.290081163123	764.806444820226	
4	26.188571428571	855.110181267966	1009.226593110235	516.158324190544	1036.735334381287	1422.204698888368	308.806231711536	1147.684664416304	1359.767797309023	467.457931806047	1078.209391845309	1444.770351856208	642.257017944898	1032.475100049154	1493.987801019546	461.845396160734	1089.066877201520	938.201107399445	622.312674998960	1061.289744568136	964.818535394360	350.046335350478	1125.132080285165	735.362141148478	588.477014075637	1043.158468717566	628.535282226765	650.142005424675	1116.132576733193	575.064325748419	566.398508203344	1114.170455634768	485.137743380480	571.214127685583	1152.773429295328	794.577133140975	373.866266712799	1119.193979375757	669.868191079096	286.411359560780	1229.202733295107	615.275327595204	343.851087893261	1249.570762839405	527.739493971120	332.488699134175	1187.480343104617	456.259043796457	324.618442293690	1047.321892225830	405.122635497109	281.329406976837	1048.501899312626	272.430702733394	329.304239176748	1078.257121778970	398.104865335423	579.257095648181	1002.291771130823	300.661367362890	644.986255678584	1030.994099815577	202.632375807194	579.671485151187	884.492276044054	43.576945309045	558.848474792369	1056.021365501579	96.023679444514	589.808189967631	969.096139756716	37.341335451580	631.718414021444	1177.127882290759	42.552577714258	616.281573581427	867.907472583579	206.636221849045	376.678578463671	916.460925258933	156.118645917354	293.538148510298	1023.289308219714	159.488022093653	307.102868295247	1092.195737257897	43.027234599187	275.690400883441	974.427947998606	1073.647933750196	197.969052024305	1052.955149481239	824.522208435695	163.561631295303	1077.007857054536	1125.115119694005	814.605862915417	1297.467737751482	1011.334570719369	759.398943992949	
5	26.201428571429	854.003945614073	1010.436777195425	518.128917851605	1036.072306810218	1422.266527892033	309.546650456252	1148.129990788974	1359.523464935563	467.278998527914	1080.619372767639	1445.207652963330	642.516164559062	1033.351939440618	1494.259609245548	462.287699664731	1088.432243749329	937.934323821072	622.518677478702	1058.820811254762	965.600991123115	350.571513781034	1122.801333020264	734.760796018884	588.115141204769	1040.387026158130	628.521512438464	650.302346760763	1112.440289011436	574.572704190282	566.143310088118	1109.803143689295	484.736392357179	570.923539721068	1151.309530490464	797.375086488134	374.654534502029	1119.225130368727	672.398328106863	286.879300918119	1229.880984325886	619.126458527778	344.326030910360	1251.732662864488	532.307427723660	332.635238083174	1191.945933562155	459.695239904142	324.266106989464	1053.672231423533	403.259258180387	281.370141712701	1060.843945354094	270.296492986341	328.077635385238	1073.709098490892	397.931509958311	579.185894306612	997.604400700054	300.650996378091	645.045007106491	1025.985599792327	202.596366841478	579.680663796966	879.150685421362	43.605068319820	558.880766003293	1050.763293876134	96.004785581799	589.792932051716	963.825229749628	37.347658065431	631.796237822288	1171.821906939260	42.524183366559	616.341559228491	883.851231879925	194.892231735063	376.284764648231	934.086839257169	148.625938378302	291.765801979818	1040.679312484923	157.572640256613	304.489993261130	1115.445681739980	45.653796698293	270.240283182610	971.919675949736	1073.792431100140	199.325198174155	1047.084291696250	823.763469880183	164.423561214267	1084.000718828678	1125.645962664189	814.709088525784	1306.959003843111	1020.970092294163	753.807543823525	
6	26.214285714286	852.997930210274	1011.611721761151	519.986086657039	1035.492118506280	1422.303069037843	310.172541109682	1148.609376209200	1359.212996286286	466.996828623943	1083.030579624784	1445.550071572476	642.652189268806	1034.261097134781	1494.475313198385	462.636135013337	1087.813964487820	937.635768603609	622.562421109696	1056.400877395150	966.295338923944	350.915965216745	1120.399123166783	734.139171063157	587.592405936421	1037.627334126146	628.518093740054	650.425923378690	1108.677490155447	574.080871628768	565.816107201556	1105.341878867935	484.358131757418	570.637343065003	1149.530275973019	799.680620122064	375.272482619096	1118.688427018102	674.423259445470	287.367086735771	1229.775042484913	622.223817112944	344.944831599930	1252.963047265142	536.265178502243	332.960380510047	1195.720806502603	462.659113367628	324.019925902818	1059.940975796887	400.547660847848	281.215031867039	1073.481622892331	267.626965734603	326.751963997861	1069.119409921533	397.759871159182	579.126992207367	992.893725684476	300.624076827863	645.097609247956	1020.989496635140	202.551424827085	579.697176530030	873.880496075676	43.611048920246	558.911568671561	1045.536864666153	95.963506056380	589.745968686649	958.612135171191	37.342058555469	631.868992032797	1166.580732706721	42.511430834318	616.392695007868	900.788377479650	182.087008835229	375.319871465824	952.862539476029	140.473741900569	289.617079604181	1058.783879080453	155.344758499533	301.899285059800	1139.669987939594	48.706235750480	265.063946625709	969.594762679641	1073.910785870792	200.544298646895	1041.582055795874	823.050911245475	165.233067387087	1090.872316810800	1125.961311762993	814.397822837284	1315.840790418518	1030.088616817379	747.969508244659	
